<svg width="35" height="35" viewBox="0 0 35 35" fill="none" xmlns="http://www.w3.org/2000/svg">
<path d="M33.3044 0.78022C33.0654 0.540736 32.7815 0.350738 32.469 0.221102C32.1565 0.0914668 31.8215 0.0247388 31.4831 0.0247388C31.1448 0.0247388 30.8098 0.0914668 30.4973 0.221102C30.1848 0.350738 29.9009 0.540736 29.6619 0.78022L17.0294 13.3869L4.39689 0.754386C4.15772 0.515216 3.87378 0.325496 3.56129 0.196058C3.2488 0.0666201 2.91387 2.52006e-09 2.57564 0C2.2374 -2.52007e-09 1.90247 0.0666201 1.58998 0.196058C1.27749 0.325496 0.993556 0.515216 0.754386 0.754386C0.515216 0.993556 0.325496 1.27749 0.196058 1.58998C0.0666201 1.90247 -2.52006e-09 2.2374 0 2.57564C2.52007e-09 2.91387 0.0666201 3.2488 0.196058 3.56129C0.325496 3.87378 0.515216 4.15772 0.754386 4.39689L13.3869 17.0294L0.754386 29.6619C0.515216 29.9011 0.325496 30.185 0.196058 30.4975C0.0666201 30.81 0 31.1449 0 31.4831C0 31.8214 0.0666201 32.1563 0.196058 32.4688C0.325496 32.7813 0.515216 33.0652 0.754386 33.3044C0.993556 33.5436 1.27749 33.7333 1.58998 33.8627C1.90247 33.9921 2.2374 34.0588 2.57564 34.0588C2.91387 34.0588 3.2488 33.9921 3.56129 33.8627C3.87378 33.7333 4.15772 33.5436 4.39689 33.3044L17.0294 20.6719L29.6619 33.3044C29.9011 33.5436 30.185 33.7333 30.4975 33.8627C30.81 33.9921 31.1449 34.0588 31.4831 34.0588C31.8214 34.0588 32.1563 33.9921 32.4688 33.8627C32.7813 33.7333 33.0652 33.5436 33.3044 33.3044C33.5436 33.0652 33.7333 32.7813 33.8627 32.4688C33.9921 32.1563 34.0588 31.8214 34.0588 31.4831C34.0588 31.1449 33.9921 30.81 33.8627 30.4975C33.7333 30.185 33.5436 29.9011 33.3044 29.6619L20.6719 17.0294L33.3044 4.39689C34.286 3.41522 34.286 1.76189 33.3044 0.78022Z" fill="white"/>
</svg>
