<svg width="96" height="96" viewBox="0 0 96 96" fill="none" xmlns="http://www.w3.org/2000/svg">
<path d="M48 96C38.5065 96 29.2262 93.1849 21.3326 87.9106C13.4391 82.6363 7.28681 75.1397 3.6538 66.3688C0.0207977 57.598 -0.929762 47.9468 0.922328 38.6357C2.77442 29.3246 7.34598 20.7718 14.0589 14.0589C20.7718 7.34598 29.3246 2.77442 38.6357 0.922328C47.9468 -0.929762 57.598 0.0207977 66.3688 3.6538C75.1397 7.28681 82.6363 13.4391 87.9106 21.3326C93.1849 29.2262 96 38.5065 96 48C95.9868 60.7264 90.9254 72.9277 81.9265 81.9265C72.9277 90.9254 60.7264 95.9868 48 96ZM48 6.00002C39.6932 6.00002 31.5729 8.46328 24.6661 13.0783C17.7592 17.6933 12.376 24.2528 9.19708 31.9273C6.0182 39.6018 5.18646 48.0466 6.80704 56.1938C8.42762 64.341 12.4277 71.8247 18.3015 77.6985C24.1753 83.5723 31.659 87.5724 39.8062 89.193C47.9534 90.8136 56.3982 89.9818 64.0727 86.803C71.7472 83.6241 78.3067 78.2408 82.9217 71.334C87.5368 64.4271 90 56.3068 90 48C90 36.8609 85.575 26.1781 77.6985 18.3015C69.822 10.425 59.1391 6.00002 48 6.00002Z" fill="#6FB95D"/>
<path d="M34.6614 34.6614C35.5432 33.7796 36.9731 33.7795 37.8549 34.6614L48.5 45.3065L59.1451 34.6614C60.0269 33.7795 61.4567 33.7795 62.3386 34.6614C63.2204 35.5432 63.2205 36.973 62.3386 37.8549L51.6935 48.5L62.3386 59.145C63.2205 60.0269 63.2204 61.4567 62.3386 62.3386C61.4567 63.2205 60.0269 63.2204 59.1451 62.3386L48.5 51.6935L37.8549 62.3386C36.9731 63.2204 35.5433 63.2204 34.6614 62.3386C33.7795 61.4567 33.7795 60.0269 34.6614 59.145L45.3065 48.5L34.6614 37.8549C33.7795 36.973 33.7795 35.5433 34.6614 34.6614Z" fill="#6FB95D"/>
</svg>
