<svg width="230" height="296" viewBox="0 0 230 296" fill="none" xmlns="http://www.w3.org/2000/svg">
<path opacity="0.38" fill-rule="evenodd" clip-rule="evenodd" d="M126.57 147.591C126.523 147.485 126.476 147.371 126.42 147.268L286.528 71.289C282.966 63.347 278.856 55.6623 274.228 48.2907L125.972 146.454C125.897 146.359 125.83 146.253 125.755 146.155C125.681 146.056 125.61 145.966 125.535 145.875L262.648 31.8396C257.231 24.9635 251.342 18.4726 245.024 12.414L124.886 145.199C124.795 145.124 124.709 145.049 124.618 144.966L124.335 144.746L229.64 -0.838112C222.625 -6.25363 215.235 -11.1659 207.527 -15.5382L123.544 144.262C123.43 144.203 123.324 144.152 123.218 144.105C123.11 144.05 123 144.001 122.887 143.959L189.089 -24.6903C180.884 -28.2175 172.437 -31.1499 163.812 -33.4647L122.01 143.688C121.899 143.66 121.785 143.629 121.659 143.609C121.534 143.589 121.423 143.577 121.309 143.554L143.682 -37.7142C134.826 -39.0682 125.885 -39.79 116.926 -39.8744L120.349 143.507H119.983L119.637 143.546L96.0642 -38.9733C87.0314 -38.0733 78.0759 -36.5177 69.2688 -34.3186L118.72 143.731C118.604 143.76 118.49 143.797 118.378 143.841C118.262 143.875 118.148 143.914 118.036 143.959L49.2175 -28.086C40.705 -24.9125 32.4359 -21.1212 24.4761 -16.7422L117.205 144.36C117.103 144.431 117.001 144.49 116.902 144.549L116.603 144.754L6.68724 -5.61092C-0.752083 -0.355854 -7.80178 5.43013 -14.4067 11.7018L115.899 145.368C115.816 145.45 115.73 145.529 115.639 145.624L115.399 145.895L-28.8707 27.0432C-34.7824 34.0619 -40.1742 41.5025 -45.003 49.3058L114.872 146.662C114.809 146.757 114.746 146.867 114.687 146.969C114.628 147.071 114.577 147.186 114.526 147.292L-55.127 67.9484C-59.058 76.2761 -62.3657 84.8839 -65.0228 93.7011L114.191 148.161C114.16 148.279 114.128 148.398 114.097 148.508C114.065 148.618 114.046 148.736 114.022 148.858L-69.9727 114.232C-71.606 123.248 -72.5804 132.37 -72.8883 141.527L113.916 149.79C113.916 149.908 113.916 150.03 113.916 150.145V150.51L-72.4634 162.582C-71.7628 171.73 -70.3924 180.815 -68.3634 189.763L114.042 151.435C114.065 151.545 114.097 151.667 114.128 151.785C114.16 151.903 114.199 152.006 114.231 152.124L-62.5282 210.058C-59.5221 218.661 -55.8899 227.031 -51.6605 235.103L114.577 152.985C114.64 153.092 114.703 153.206 114.75 153.304C114.797 153.402 114.88 153.513 114.943 153.611L-40.9424 253.073C-35.8987 260.545 -30.3246 267.646 -24.2632 274.32L115.494 154.363L115.738 154.626L115.99 154.878L-9.48834 288.886C-2.76241 294.832 4.37882 300.29 11.8811 305.219L116.717 155.46C116.812 155.531 116.918 155.59 117.02 155.665L117.331 155.842L29.7879 315.627C37.7654 319.69 46.0247 323.174 54.5019 326.054L118.177 156.232C118.295 156.279 118.394 156.31 118.508 156.346C118.622 156.381 118.748 156.413 118.866 156.444L74.3446 331.57C82.8593 333.447 91.5865 334.757 100.491 334.781L119.771 155.96C119.881 156.625 120.007 156.629 120.117 156.645H120.479L120.747 335.875C129.544 335.605 138.312 334.723 146.987 333.234L121.412 156.566C121.537 156.542 121.648 156.527 121.77 156.499L122.116 156.42L166.791 328.725C175.197 326.315 183.424 323.316 191.41 319.75L123.017 156.133C123.123 156.09 123.233 156.043 123.344 155.988C123.454 155.932 123.552 155.881 123.658 155.834L209.258 310.626C216.737 306.277 223.909 301.419 230.722 296.087L124.441 155.323C124.538 155.257 124.63 155.184 124.717 155.106C124.815 155.02 124.906 154.945 125.004 154.866L245.721 282.996C251.916 276.993 257.694 270.574 263.014 263.783L125.622 154.178L125.842 153.898C125.905 153.796 125.972 153.694 126.043 153.599L274.448 247.442C279.038 240.097 283.114 232.443 286.646 224.534L126.503 152.773C126.546 152.663 126.594 152.553 126.645 152.438C126.696 152.324 126.723 152.218 126.759 152.104L293.795 205.919C296.447 197.724 298.529 189.356 300.028 180.875L126.979 151.203C126.979 151.081 127.015 150.963 127.03 150.837C127.046 150.711 127.03 150.597 127.062 150.483L302.432 161.107C302.727 156.778 302.888 152.45 302.888 148.059C302.888 143.755 302.731 139.485 302.444 135.256L127.054 149.558C127.054 149.448 127.026 149.322 127.015 149.2C127.003 149.078 126.979 148.964 126.956 148.85L300.051 115.405C298.546 106.829 296.442 98.368 293.756 90.0851L126.716 147.969C126.653 147.811 126.609 147.701 126.57 147.591Z" fill="#DDE4EF"/>
</svg>
