<svg width="50" height="59" viewBox="0 0 50 59" fill="none" xmlns="http://www.w3.org/2000/svg">
<path d="M35.7093 40.1268C35.413 40.438 34.8377 40.9638 34.8377 40.9638C34.275 41.4767 33.6471 41.9295 33.03 42.3463C31.3852 43.4548 29.6116 44.2156 27.7579 44.6051C27.4555 44.6691 27.1431 44.7117 26.8454 44.7536L26.7503 44.7669L23.6731 49.1664C22.7841 50.4373 21.7496 51.4867 20.5957 52.2823C19.4442 53.0795 18.2179 53.6358 16.953 53.9404C15.6857 54.2432 14.3959 54.2766 13.123 54.0352C11.8459 53.7946 10.6081 53.2624 9.44537 52.4491C8.28261 51.6359 7.35411 50.6565 6.69418 49.5386C6.03255 48.4232 5.60915 47.2025 5.4426 45.9112C5.27434 44.6224 5.37633 43.2796 5.74906 41.9232C6.47828 39.2643 8.3004 37.0326 9.85519 34.8097C11.255 32.8084 12.6325 30.7878 14.0323 28.7865C14.7697 27.7323 15.5071 26.6781 16.2445 25.6238C16.4369 25.3487 16.5558 24.9895 16.7259 24.6951C17.388 23.5593 18.2995 22.5834 19.3463 21.7927C19.573 22.0056 19.7977 22.2317 20.0187 22.4733C19.2721 23.0497 17.6592 24.9056 17.4162 25.8053C16.5958 26.3083 15.979 27.0263 15.5601 27.6252C15.6319 27.3129 15.7167 27.0024 15.8153 26.6978C14.0924 29.202 12.5614 31.5902 11.313 33.6974C11.6583 35.0194 12.1894 36.2756 12.9236 37.4816C13.9201 39.1105 15.2644 40.5185 16.9629 41.7065C19.2908 43.3347 21.9794 44.258 24.8374 44.31C26.7967 44.3425 28.7562 43.9654 30.5747 43.2069C31.5031 42.8157 32.3918 42.3277 33.2295 41.7643C34.1465 41.1439 35.0011 40.4182 35.7957 39.589C36.2739 39.0895 36.7334 38.5552 37.1672 37.9811C37.3106 37.7914 37.4534 37.5976 37.593 37.3979L46.8604 24.1483C47.906 22.6533 48.6803 21.1064 49.1881 19.5109C49.2886 19.1933 49.3844 18.8723 49.4654 18.5518C49.947 16.6153 50.0513 14.7013 49.781 12.8117C49.5106 10.9221 48.8747 9.16117 47.8792 7.52574C46.8819 5.89274 45.5345 4.47897 43.8336 3.28929C42.1327 2.09961 40.3443 1.31643 38.4666 0.942175C36.5906 0.565487 34.7201 0.569713 32.8609 0.951666C31.0017 1.33362 29.2431 2.08325 27.5908 3.19737C25.9369 4.31393 24.4756 5.77913 23.2035 7.59786L15.1094 19.17C15.3645 18.9025 15.6268 18.64 15.8943 18.3956C16.4621 17.8754 17.0595 17.4049 17.6824 16.9849C19.3364 15.8684 21.0933 15.1212 22.9525 14.7392C23.2901 14.6708 23.6296 14.6254 23.9673 14.5824L26.9951 10.2535C27.9079 8.94854 28.937 7.89164 30.0864 7.0821C31.2358 6.27255 32.4487 5.72503 33.7253 5.43953C35.0019 5.15403 36.2849 5.13046 37.5726 5.37124C38.8603 5.61202 40.0891 6.14157 41.2615 6.96158C42.4338 7.78158 43.3527 8.75425 44.0206 9.88126C44.6884 11.0083 45.0957 12.2214 45.2472 13.5239C45.3988 14.8264 45.2954 16.1609 44.9388 17.5249C44.5821 18.889 43.9563 20.2134 43.0606 21.4941L39.7841 26.1784L39.5389 26.529L34.4045 33.8697C34.1504 34.4171 33.8558 34.9507 33.4982 35.462C33.1406 35.9733 32.7387 36.4355 32.3133 36.8595C31.9947 37.1769 31.6613 37.4694 31.313 37.7371C31.1929 37.8271 31.072 37.9129 30.947 37.9996C30.8433 37.9995 30.7354 38.0003 30.6088 38.0023C30.4332 38.0028 30.2363 38.0028 30.0443 38.0063C30.3355 37.2165 30.4336 36.2119 30.3313 35.0743C30.9407 34.5252 32.4563 32.4454 32.6993 31.6581C33.4907 31.5445 34.4218 31.2567 34.9295 31.0679C34.9685 31.2475 35.0352 31.4283 35.1119 31.6052C35.0233 32.0182 34.9046 32.3413 34.7593 32.769L34.6916 32.9682L34.8125 32.7953C36.518 30.3262 38.0657 27.9243 39.3754 25.704C39.4148 25.6373 39.3053 25.3541 39.279 25.274C38.4642 22.5105 36.7805 20.0892 34.5486 18.3033C34.289 18.0963 34.0244 17.8967 33.7529 17.7068C32.7175 16.9826 31.5986 16.3777 30.4122 15.9358C29.2234 15.4923 27.89 15.2196 26.619 15.1391C26.1804 15.1115 25.7435 15.1069 25.3054 15.1195C24.4609 15.1453 23.5954 15.2215 22.7631 15.3936C20.9039 15.7755 19.1453 16.5252 17.4931 17.6393C16.5454 18.2781 15.6645 19.0362 14.8426 19.9044C14.2093 20.5745 13.6096 21.2682 13.0817 22.023C12.6151 22.6901 12.1468 23.3596 11.6802 24.0267C10.6448 25.507 9.6094 26.9873 8.57401 28.4676C7.51818 29.9771 6.46236 31.4866 5.40653 32.9962C4.59252 34.16 3.77843 35.2983 3.10646 36.5506C2.48449 37.7109 1.86432 38.8942 1.43195 40.1364C0.712249 42.2037 0.559567 44.4936 0.878115 46.6417C1.15391 48.5134 1.80079 50.2893 2.79565 51.9206C3.79051 53.5519 5.1547 54.9774 6.85078 56.1637C8.54686 57.3501 10.3555 58.1401 12.2274 58.5176C14.101 58.8926 15.9937 58.8822 17.8556 58.4912C19.7176 58.1003 21.497 57.3362 23.1493 56.2221C24.7974 55.1087 26.2686 53.6396 27.5203 51.8501L35.7165 40.1318L35.7093 40.1268ZM31.1366 25.7645C31.0608 26.5889 30.8622 27.4253 30.6051 28.0179C30.3107 28.1165 30.0081 28.2167 29.7171 28.3105C28.7573 28.629 27.763 28.956 26.8325 29.3349C26.3048 28.7953 24.7318 27.2745 23.1876 26.7456C23.2408 26.199 23.2918 25.6147 23.3414 25.0475C23.374 24.6787 23.4055 24.3164 23.4365 23.9755C23.4605 23.7059 23.4826 23.4748 23.5048 23.2691C24.2353 22.6851 25.2656 22.2709 26.0094 22.026C26.4802 21.8694 26.8991 21.7564 27.168 21.6943C27.3301 21.6517 27.4591 21.6259 27.5347 21.6099C28.8817 22.349 30.0187 23.2349 31.0515 24.0806C31.1733 24.4486 31.2025 25.0564 31.1376 25.7579L31.1913 25.7629L31.192 25.767L31.1366 25.7645ZM17.1893 35.6284C16.9382 35.2969 16.7055 34.9492 16.5002 34.588C16.3703 34.3594 16.2578 34.1212 16.1553 33.8791C16.4338 34.2226 16.7239 34.5342 17.0247 34.8099C17.1273 35.1645 17.2692 35.5755 17.5029 36.0291C17.3956 35.896 17.2907 35.7646 17.1893 35.6284ZM25.2564 39.8133C24.8062 39.8175 24.3576 39.7939 23.9134 39.7333C23.1055 39.6251 22.315 39.4202 21.5624 39.1151C20.9618 38.869 20.389 38.5626 19.8461 38.2083C20.7144 38.5219 21.5608 38.6571 22.3657 38.5855C23.3115 39.3305 24.4962 39.6623 25.3423 39.8082C25.3169 39.8086 25.2858 39.8122 25.2564 39.8133ZM22.4633 35.6226C20.9887 34.7435 19.8743 33.9532 19.0641 33.2088C18.9221 32.5474 18.8913 31.7935 18.9671 30.969C19.0327 30.2717 19.163 29.6557 19.2632 29.2618C19.3203 29.037 19.371 28.8622 19.4035 28.7543C19.4079 28.7429 19.4116 28.7274 19.416 28.716C20.5746 27.9854 21.8937 27.4396 23.0444 26.9862C23.9516 27.28 24.8924 27.9706 25.5259 28.4971C25.8274 28.7515 26.1293 29.0207 26.4168 29.3052C26.5384 29.4229 26.6281 29.5146 26.6797 29.5688C26.6514 29.9878 26.6364 30.3979 26.6167 30.8301C26.5851 31.5404 26.5511 32.2744 26.476 33.1029C26.4585 33.2865 26.4393 33.4725 26.4211 33.6519C26.3685 33.6913 26.3085 33.7363 26.2409 33.7869C25.5792 34.2777 23.8939 35.434 22.4633 35.6226ZM19.5682 21.6288C19.5874 21.6168 19.6058 21.6007 19.6266 21.5863C21.6273 20.1684 24.1709 19.5036 26.5978 19.7218C26.9975 19.7693 27.3934 19.8323 27.7772 19.9231C27.6012 20.3946 27.4942 21.0232 27.4472 21.3565C26.8588 21.4816 24.718 22.0002 23.4026 23.0163C22.6957 22.6561 21.4104 22.1305 20.2716 22.3419C20.0362 22.0903 19.8029 21.8509 19.5682 21.6288ZM17.4335 26.1183C17.6178 26.7294 18.4205 28.0523 19.1441 28.6853C19.0287 29.0651 18.7918 29.9255 18.6989 30.9483C18.6235 31.7621 18.6518 32.5143 18.784 33.1796C17.8882 33.601 17.3328 34.0319 17.0876 34.495C16.6678 34.0926 16.2673 33.6166 15.8898 33.077C15.8678 33.0471 15.8475 33.0148 15.8272 32.9825C15.6774 32.5368 15.5539 32.0842 15.469 31.6224C15.4421 31.4767 15.4194 31.3303 15.4007 31.1831C15.2779 30.2487 15.2854 29.2968 15.4231 28.3633C15.4234 28.3527 15.4261 28.3437 15.4281 28.3306C15.7915 27.7037 16.4546 26.7607 17.4335 26.1183ZM30.0735 36.6091C30.0228 37.1573 29.9067 37.6454 29.7364 38.0629C28.9132 38.6619 27.4322 39.4135 26.2698 39.6483C26.2355 39.6461 26.1948 39.643 26.1434 39.6397C25.613 39.595 23.7913 39.376 22.5145 38.3524C22.4919 37.8834 22.4821 36.767 22.5438 36.1212C22.5513 36.0286 22.561 35.9484 22.5727 35.8804C24.1404 35.639 25.9437 34.355 26.5565 33.888C27.5647 34.5642 28.8056 35.0152 30.0724 35.158C30.1133 35.6724 30.1133 36.1583 30.0735 36.6091ZM32.6791 31.3902C32.4193 30.4471 31.2556 28.607 30.8615 28.1066C31.1233 27.4919 31.3283 26.631 31.4047 25.7852C31.4679 25.0862 31.4442 24.4858 31.3284 24.0785C31.8793 23.92 32.7727 23.7834 33.5382 23.804C33.7691 24.1286 33.975 24.4685 34.1652 24.8154C34.9678 26.3739 35.3625 28.1982 35.3032 29.966C35.1778 30.2372 35.0576 30.5012 34.9586 30.7655C34.4834 30.9589 33.4863 31.2695 32.6791 31.3902Z" fill="#317122"/>
</svg>
