<svg width="26" height="18" viewBox="0 0 26 18" fill="none" xmlns="http://www.w3.org/2000/svg">
<g clip-path="url(#clip0_119_11404)">
<path fill-rule="evenodd" clip-rule="evenodd" d="M21.8935 3.82479C22.0307 4.02015 22.1522 4.22657 22.2567 4.44201C22.3742 4.67636 22.4796 4.9168 22.5725 5.16236C22.6673 5.41376 22.7525 5.67482 22.8315 5.94072C22.9104 6.20663 22.9783 6.47897 23.0415 6.74649C23.1047 7.014 23.1599 7.29118 23.2089 7.56031C23.2578 7.82943 23.2989 8.10017 23.3336 8.36607C23.3684 8.63197 23.3968 8.88982 23.4189 9.14444C23.441 9.39906 23.4552 9.64885 23.4631 9.89058C23.471 10.1323 23.4631 10.3644 23.471 10.5706C23.4789 10.7769 23.4884 10.9929 23.5089 11.2153C23.5294 11.4376 23.5579 11.6794 23.5942 11.9243C23.6305 12.1693 23.6763 12.4207 23.7284 12.6785C23.7805 12.9364 23.8405 13.2007 23.9084 13.4682C23.9763 13.7357 24.0521 14.008 24.1342 14.2739C24.2163 14.5398 24.3079 14.817 24.4058 15.0797C24.5037 15.3424 24.6111 15.6131 24.7216 15.8693C24.8322 16.1256 24.9553 16.3705 25.0848 16.5994C25.2048 16.8188 25.3404 17.0288 25.4906 17.2279C25.1496 17.2279 24.8417 17.2279 24.5527 17.2279C24.2637 17.2279 23.9968 17.2134 23.7395 17.1956C23.4821 17.1779 23.2389 17.1553 22.9973 17.1215C22.7557 17.0877 22.5236 17.0474 22.2851 16.9942C22.0467 16.941 21.8114 16.8765 21.5635 16.7976C21.3156 16.7186 21.0645 16.6268 20.7976 16.5172C20.5308 16.4076 20.2292 16.2626 20.0286 16.1643L19.4238 15.8661C19.2201 15.7678 19.0101 15.6711 18.7922 15.5825C18.5599 15.4876 18.3207 15.4111 18.0769 15.3537C17.9887 15.164 17.9101 14.9698 17.8416 14.7719C17.7658 14.5559 17.6947 14.3223 17.6268 14.0789C17.5589 13.8356 17.4973 13.581 17.4389 13.3231C17.3805 13.0653 17.3268 12.8026 17.281 12.5383C17.2352 12.274 17.1879 12.0097 17.15 11.7471C17.1121 11.4844 17.0789 11.2249 17.0505 10.9687C17.022 10.7125 16.9999 10.4611 16.9826 10.2145C16.9652 9.96793 16.9541 9.73104 16.9494 9.49575C16.9447 9.26047 16.9494 9.04936 16.9494 8.80441C16.9494 8.55945 16.9494 8.30806 16.9494 8.05183C16.9494 7.79559 16.9289 7.53614 16.9131 7.27185C16.8973 7.00756 16.8736 6.74165 16.8483 6.46608C16.8231 6.19051 16.7899 5.92783 16.7536 5.66032C16.7173 5.39281 16.6778 5.12368 16.632 4.85456C16.5862 4.58543 16.5341 4.33403 16.4741 4.08585C16.4141 3.83768 16.3572 3.6024 16.2909 3.3784C16.2304 3.1725 16.1587 2.97021 16.0762 2.77246C16.362 2.9175 16.5988 3.05448 16.8073 3.17856C17.0157 3.30265 17.1973 3.41546 17.3631 3.51699C17.5289 3.61851 17.6789 3.71198 17.8369 3.79256C17.9789 3.8713 18.1249 3.9423 18.2743 4.00528C18.4221 4.06629 18.5741 4.11638 18.729 4.15515C18.8993 4.19608 19.0725 4.22302 19.247 4.23573C19.4609 4.25164 19.6757 4.25164 19.8897 4.23573C20.1745 4.21004 20.4576 4.16753 20.7376 4.10842C21.0661 4.04073 21.4466 3.94726 21.9093 3.80545L21.8935 3.82479Z" fill="#FF1612"/>
<path fill-rule="evenodd" clip-rule="evenodd" d="M8.37035 1.95208C8.41614 2.16642 8.46035 2.39687 8.50457 2.6386C8.54878 2.88033 8.58983 3.13333 8.63246 3.39279C8.6751 3.65225 8.713 3.92137 8.75247 4.19855C8.79195 4.47574 8.82828 4.74486 8.86302 5.02204C8.89776 5.29922 8.93248 5.57641 8.96407 5.8552C8.99565 6.134 9.02566 6.41279 9.05566 6.69159C9.08567 6.97038 9.10935 7.24595 9.13462 7.52152C9.15988 7.79709 9.18198 8.07105 9.20409 8.34179C9.2262 8.61253 9.24356 8.88165 9.26093 9.14755C9.2783 9.41346 9.29411 9.66486 9.31305 9.92592C9.332 10.187 9.35568 10.4481 9.38094 10.714C9.40621 10.9799 9.43148 11.2458 9.4599 11.5197C9.48832 11.7937 9.51992 12.0596 9.55308 12.3255C9.58624 12.5914 9.61938 12.8686 9.6557 13.1393C9.69202 13.41 9.72835 13.6824 9.76783 13.9451C9.80731 14.2078 9.84679 14.4785 9.88784 14.7396C9.9289 15.0006 9.97152 15.2569 10.0142 15.505C10.0568 15.7532 10.101 15.9885 10.1437 16.2189C10.1863 16.4494 10.2305 16.6605 10.2731 16.8555C10.5207 16.9079 10.7712 16.9445 11.0232 16.9651C11.2408 16.9812 11.4593 16.9812 11.6769 16.9651C11.8818 16.9496 12.0855 16.9199 12.2865 16.8764C12.4903 16.8344 12.6917 16.7806 12.8897 16.7153C13.0934 16.6476 13.3002 16.5686 13.5213 16.4784C13.7424 16.3881 13.9666 16.2818 14.2098 16.1658C14.453 16.0497 14.7625 15.8918 15.0498 15.7693C15.3184 15.6542 15.593 15.5547 15.8725 15.4712C16.1236 15.3984 16.3796 15.3445 16.6384 15.31C16.879 15.2762 17.1221 15.2638 17.3648 15.273C17.6025 15.2829 17.8388 15.3152 18.0706 15.3697C17.9824 15.18 17.9039 14.9858 17.8353 14.7879C17.7596 14.572 17.6885 14.3383 17.6206 14.0949C17.5527 13.8516 17.4911 13.597 17.4327 13.3391C17.3742 13.0813 17.3206 12.8186 17.2748 12.5543C17.229 12.29 17.1816 12.0257 17.1437 11.7631C17.1058 11.5004 17.0726 11.2409 17.0442 10.9847C17.0158 10.7285 16.9937 10.4771 16.9763 10.2305C16.959 9.98394 16.9479 9.74704 16.9432 9.51176C16.9384 9.27648 16.9432 9.06537 16.9432 8.82041C16.9432 8.57546 16.9432 8.32407 16.9432 8.06783C16.9432 7.8116 16.9226 7.55214 16.9068 7.28785C16.8911 7.02356 16.8674 6.75766 16.8421 6.48209C16.8168 6.20651 16.7837 5.94384 16.7474 5.67632C16.711 5.40881 16.6716 5.13968 16.6258 4.87056C16.58 4.60143 16.5279 4.35004 16.4679 4.10186C16.4079 3.85369 16.351 3.61841 16.2847 3.3944C16.2242 3.18851 16.1525 2.98622 16.0699 2.78847C15.8346 2.66921 15.5962 2.55318 15.3278 2.4436C15.0593 2.33401 14.7909 2.22927 14.5003 2.12935C14.2098 2.02944 13.894 1.93597 13.6145 1.87151C13.3539 1.81079 13.0904 1.76452 12.8249 1.73292C12.5927 1.7048 12.3592 1.68866 12.1254 1.68457C11.9027 1.68457 11.6896 1.68457 11.4827 1.69747C11.2758 1.71036 11.0737 1.72808 10.8732 1.75064C10.6726 1.7732 10.4768 1.8006 10.2795 1.828C10.0821 1.85539 9.88151 1.8844 9.67781 1.90857C9.47411 1.93275 9.26725 1.9537 9.04618 1.96175C8.81976 1.97305 8.59285 1.96766 8.36719 1.94564L8.37035 1.95208Z" fill="#F0F0F0"/>
<path fill-rule="evenodd" clip-rule="evenodd" d="M8.37089 1.95224C8.41669 2.16658 8.4609 2.39703 8.50511 2.63876C8.54933 2.88049 8.59037 3.13349 8.63301 3.39295C8.67564 3.65241 8.71354 3.92153 8.75302 4.19871C8.7925 4.4759 8.82883 4.74502 8.86357 5.0222C8.89831 5.29938 8.93303 5.57657 8.96461 5.85536C8.99619 6.13416 9.02621 6.41295 9.05621 6.69175C9.08621 6.97054 9.1099 7.24611 9.13516 7.52168C9.16043 7.79725 9.18253 8.07121 9.20463 8.34195C9.22674 8.61269 9.24411 8.88181 9.26148 9.14771C9.27885 9.41361 9.29465 9.66501 9.3136 9.92608C9.33255 10.1871 9.35622 10.4482 9.38149 10.7141C9.40676 10.98 9.43202 11.2459 9.46044 11.5199C9.48887 11.7938 9.52046 12.0597 9.55362 12.3256C9.58678 12.5915 9.61993 12.8687 9.65625 13.1395C9.69257 13.4102 9.7289 13.6826 9.76838 13.9452C9.80785 14.2079 9.84733 14.4786 9.88839 14.7397C9.92944 15.0008 9.97207 15.257 10.0147 15.5052C10.0573 15.7534 10.1016 15.9886 10.1442 16.2191C10.1868 16.4495 10.231 16.6607 10.2737 16.8556C10.0005 16.7976 9.72259 16.7235 9.43677 16.6365C9.15096 16.5495 8.85881 16.4512 8.55247 16.3416C8.24613 16.232 7.95558 16.1208 7.70293 16.0483C7.46169 15.9769 7.2158 15.923 6.96709 15.8871C6.73683 15.8548 6.50472 15.8381 6.27229 15.8372C6.0496 15.8362 5.82707 15.8491 5.60592 15.8758C5.38701 15.9021 5.16978 15.9414 4.95534 15.9935C4.73729 16.0453 4.5222 16.1093 4.31107 16.1853C4.09625 16.2641 3.88544 16.354 3.67943 16.4544C3.46315 16.5598 3.25232 16.6765 3.0478 16.8041C2.83621 16.9346 2.62461 17.078 2.41617 17.236C2.40354 17.0377 2.38932 16.8282 2.37195 16.6107C2.35458 16.3931 2.33405 16.1643 2.31353 15.9322C2.293 15.7002 2.26774 15.4601 2.24406 15.2167C2.22037 14.9734 2.19353 14.7252 2.16668 14.4738C2.13984 14.2224 2.11141 13.9694 2.08299 13.7132C2.05456 13.4569 2.02457 13.1991 1.99457 12.9412C1.96457 12.6834 1.93455 12.4207 1.90297 12.1597C1.87139 11.8986 1.84139 11.6375 1.80981 11.3748C1.77823 11.1122 1.74665 10.8495 1.71349 10.5852C1.68033 10.3209 1.64875 10.0582 1.61717 9.79394L1.51768 8.99945L1.4182 8.20336C1.38662 7.93746 1.35188 7.67156 1.31872 7.3976L1.21923 6.59183L1.11975 5.78607L1.02027 4.98031C0.988687 4.71279 0.955529 4.44528 0.923947 4.17454C0.892365 3.90381 0.859209 3.64274 0.829206 3.37845C0.799203 3.11416 0.76603 2.85309 0.737607 2.59363C0.709184 2.33418 0.679193 2.07794 0.650769 1.82655C0.622346 1.57515 0.59708 1.32859 0.571815 1.08847C0.54655 0.848351 0.524434 0.614678 0.503906 0.392287C0.769692 0.328511 1.03921 0.282217 1.31081 0.253694C1.56573 0.226147 1.82191 0.212698 2.07824 0.213405C2.32774 0.213405 2.57092 0.226298 2.80936 0.248859C3.0478 0.271421 3.2831 0.302042 3.51522 0.342331C3.74735 0.382619 3.97473 0.427741 4.20212 0.482533C4.42951 0.537324 4.65689 0.600175 4.88427 0.66947C5.11166 0.738766 5.34062 0.816118 5.57275 0.899918C5.80487 0.983717 6.04647 1.0788 6.28017 1.18032C6.51388 1.28185 6.76496 1.39465 7.01603 1.51713C7.23345 1.62661 7.45954 1.71718 7.69188 1.78787C7.91907 1.85401 8.1516 1.89931 8.38668 1.92324L8.37089 1.95224Z" fill="#0463C8"/>
</g>
<defs>
<clipPath id="clip0_119_11404">
<rect width="25" height="17" fill="white" transform="translate(0.488281 0.245605)"/>
</clipPath>
</defs>
</svg>
