<svg width="30" height="24" viewBox="0 0 30 24" fill="none" xmlns="http://www.w3.org/2000/svg">
<g clip-path="url(#clip0_36_69)">
<g clip-path="url(#clip1_36_69)">
<path d="M30 1H0V23H30V1Z" fill="#FF0000"/>
<path d="M12.8621 5.27718C12.6537 5.27358 12.3079 5.34538 12.3156 5.50956C11.7353 5.40744 11.6748 5.65355 11.7089 5.87256C11.7642 5.78564 11.8314 5.73846 11.883 5.72956C11.9604 5.71637 12.0414 5.74203 12.1241 5.79418C12.2068 5.84633 12.2979 5.93049 12.3384 5.98255C12.1336 6.03283 11.9753 6.00037 11.8147 5.97155C11.7356 5.95733 11.6248 5.91161 11.5589 5.8643C11.4931 5.81698 11.4723 5.77245 11.3688 5.66355C11.2466 5.53516 11.1166 5.57131 11.1571 5.7708C11.2508 5.95608 11.4073 6.0387 11.6045 6.07192C11.6994 6.08792 11.8407 6.12264 12.0009 6.1228C12.1611 6.12297 12.341 6.09904 12.4388 6.12005C12.3801 6.15795 12.3135 6.22328 12.1817 6.2493C12.0477 6.27575 11.8439 6.16746 11.7196 6.13792C11.7354 6.24522 11.8673 6.34552 12.1268 6.3978C12.5533 6.49314 12.9077 6.5656 13.142 6.69617C13.3763 6.82674 13.524 6.99021 13.6295 7.1183C13.8394 7.3732 13.8505 7.56887 13.8638 7.61192C13.907 8.01917 13.7687 8.24826 13.5116 8.31867C13.3831 8.35387 13.1547 8.28758 13.071 8.18667C12.9873 8.08578 12.9058 7.91237 12.929 7.6408C12.9516 7.53426 13.0703 7.25676 12.9692 7.19943C12.5037 6.93528 11.9384 6.66815 11.5295 6.50919C11.4177 6.46574 11.3256 6.62171 11.2897 6.68244C10.595 6.59557 9.96858 6.11289 9.68662 5.59894C9.49457 5.24889 9.17805 5.59966 9.23126 5.93031C9.31716 6.29936 9.59105 6.56619 9.91965 6.75531C10.2569 6.94597 10.6785 7.13357 11.1049 7.12381C11.3347 7.16843 11.3324 7.47358 11.0567 7.53081C10.5175 7.53431 10.0874 7.52051 9.68126 7.11831C9.37321 6.82955 9.19979 7.17361 9.28885 7.36856C9.43976 7.96952 10.2748 8.13781 11.1196 7.94331C11.4468 7.88769 11.2509 8.24759 11.1585 8.25131C10.8055 8.51116 10.1735 8.76541 9.61696 8.24856C9.36229 8.04835 9.1901 8.21664 9.28482 8.50569C9.53177 9.25929 10.4764 9.10101 11.125 8.72981C11.2919 8.63427 11.4435 8.85655 11.2402 9.02544C10.4336 9.60405 10.0303 9.61063 9.66652 9.38843C9.21106 9.20402 9.17099 9.72267 9.44152 9.89306C9.7422 10.0824 10.5074 9.94045 11.0688 9.57819C11.3094 9.39449 11.3203 9.68172 11.1679 9.79544C10.5017 10.3865 10.2391 10.5422 9.54465 10.4458C9.20028 10.4182 9.20546 10.8541 9.47634 11.0247C9.84619 11.2575 10.5685 10.871 11.129 10.3936C11.365 10.2641 11.4037 10.4764 11.2871 10.7277C10.9445 11.1713 10.6231 11.4329 10.3134 11.5541C10.0037 11.6752 9.70588 11.6559 9.49509 11.5815C9.23794 11.4908 9.2057 11.7652 9.34777 12.0147C9.43342 12.165 9.78833 12.2132 10.1714 12.0738C10.5545 11.9343 10.9658 11.6073 11.2482 11.224C11.4939 11.0032 11.4634 11.2999 11.3513 11.5087C10.7859 12.4264 10.2687 12.7669 9.58751 12.709C9.28547 12.6564 9.21687 12.8975 9.40938 13.1202C9.74741 13.408 10.1701 13.3989 10.5397 13.1147C10.8684 12.7894 11.4971 12.0889 11.8268 11.7135C12.0591 11.5234 12.1334 11.7108 12.0652 12.0972C12.0032 12.3184 11.848 12.5514 11.425 12.7214C11.1361 12.8907 11.353 13.1241 11.5696 13.1284C11.6889 13.1308 11.9309 12.9877 12.1161 12.7737C12.3597 12.492 12.3742 12.303 12.5085 11.8648C12.6354 11.6512 12.862 11.7509 12.8621 11.9748C12.7534 12.4137 12.66 12.4924 12.4402 12.6719C12.23 12.8745 12.5866 12.9421 12.7067 12.8589C13.0543 12.6184 13.1812 12.3072 13.2973 12.0243C13.3812 11.82 13.6243 11.9191 13.5116 12.2525C13.2422 13.0495 12.7995 13.3633 12.025 13.5244C11.9465 13.5387 11.8986 13.5863 11.9259 13.6798C12.0299 13.7906 12.134 13.8911 12.238 14.0015C11.759 14.1447 11.3699 14.2251 10.8906 14.3687C10.6555 14.2104 10.4655 14.0761 10.2304 13.9177C10.1684 13.7689 10.1394 13.5417 9.79241 13.7018C9.55726 13.5903 9.44879 13.6312 9.3183 13.7431C9.50668 13.7503 9.58864 13.802 9.6625 13.8902C9.75893 14.1509 9.9813 14.1761 10.2089 14.1019C10.357 14.23 10.4359 14.3282 10.5839 14.4567C10.3075 14.447 10.115 14.4419 9.83929 14.4333C9.57611 14.1432 9.36606 14.1591 9.17768 14.3866C9.0341 14.4092 8.97324 14.4124 8.875 14.5914C9.02951 14.5263 9.12671 14.5068 9.19375 14.5777C9.47355 14.7442 9.65634 14.7071 9.79509 14.5777C10.065 14.5946 10.3083 14.609 10.5786 14.6272C10.4793 14.7138 10.343 14.7598 10.2437 14.8472C9.83831 14.7281 9.6267 14.8884 9.55536 15.2281C9.50102 15.3652 9.47558 15.5063 9.49911 15.6529C9.53835 15.5188 9.60145 15.4035 9.71741 15.3312C10.0788 15.4254 10.2147 15.274 10.2344 15.0521C10.4086 14.9062 10.6712 14.874 10.8451 14.7262C11.0484 14.793 11.1466 14.8344 11.3513 14.9008C11.4241 15.1279 11.5888 15.2178 11.8562 15.1593C12.1746 15.1696 12.1184 15.3037 12.1442 15.4109C12.2288 15.2569 12.2264 15.1071 12.0304 14.9709C11.959 14.772 11.801 14.6815 11.5937 14.7963C11.3987 14.7395 11.3474 14.6578 11.1531 14.6011C11.6446 14.4402 11.9933 14.4041 12.4844 14.2436C12.6073 14.3626 12.7047 14.4481 12.8286 14.5543C12.8938 14.5943 12.9563 14.6044 12.9946 14.5543C13.3024 14.097 13.4398 13.694 13.7259 13.3924C13.8352 13.2677 13.9732 13.0993 14.1263 13.0583C14.2029 13.0378 14.2968 13.0503 14.3567 13.1175C14.4166 13.1846 14.4637 13.3083 14.4438 13.4928C14.4151 13.7577 14.3528 13.8414 14.2804 14.0002C14.208 14.159 14.1195 14.2567 14.0286 14.3783C13.8467 14.6216 13.6068 14.7631 13.4647 14.8582C13.1807 15.0484 13.0606 14.9651 12.8406 14.9531C12.5564 14.9858 12.4807 15.128 12.7134 15.3243C12.9309 15.4405 13.1264 15.4548 13.2853 15.4247C13.4217 15.3988 13.5813 15.218 13.6951 15.1208C13.8231 14.969 14.0354 15.1491 13.8906 15.3257C13.6275 15.6467 13.3646 15.8583 13.0402 15.8537C12.6993 15.9008 12.763 16.0975 12.9893 16.1933C13.3965 16.3659 13.7641 16.0427 13.9509 15.8303C14.095 15.6685 14.1973 15.6622 14.1719 15.9128C14.0288 16.3666 13.8333 16.5419 13.5143 16.5646C13.2555 16.5399 13.2527 16.745 13.442 16.8836C13.8731 17.19 14.1854 16.6682 14.3313 16.3528C14.4352 16.0683 14.5947 16.2036 14.6112 16.4381C14.6133 16.7513 14.4754 17.0071 14.1063 17.3277C14.3887 17.7898 14.7181 18.2597 15.0009 18.7233L15.8583 8.91986L15.0011 7.37097C14.9118 7.28635 14.6099 6.92116 14.531 6.87047C14.5023 6.83891 14.4848 6.81661 14.527 6.80034C14.5679 6.78462 14.6636 6.767 14.7279 6.75497C14.5461 6.56802 14.3903 6.50806 14.0462 6.40573C14.1301 6.36906 14.2116 6.39041 14.4587 6.37825C14.3606 6.23531 14.1415 6.01636 13.8587 5.91073C14.0455 5.7744 14.0819 5.76526 14.2672 5.60548C13.9463 5.58212 13.6723 5.51937 13.3966 5.43361C13.2224 5.34994 12.9803 5.2789 12.8623 5.27686L12.8621 5.27718ZM12.8929 5.66081C13.0624 5.66081 13.1674 5.72048 13.1674 5.79281C13.1674 5.86639 13.0624 5.92618 12.8929 5.92618C12.724 5.92618 12.617 5.86094 12.617 5.78731C12.617 5.71498 12.724 5.66081 12.8929 5.66081Z" fill="black"/>
<path d="M17.1379 5.27718C17.3463 5.27358 17.6921 5.34538 17.6844 5.50956C18.2647 5.40744 18.3252 5.65355 18.2911 5.87256C18.2358 5.78564 18.1686 5.73846 18.117 5.72956C18.0396 5.71637 17.9586 5.74203 17.8759 5.79418C17.7932 5.84633 17.7021 5.93049 17.6616 5.98255C17.8664 6.03283 18.0247 6.00037 18.1853 5.97155C18.2644 5.95733 18.3752 5.91161 18.4411 5.8643C18.5069 5.81698 18.5277 5.77245 18.6312 5.66355C18.7534 5.53516 18.8834 5.57131 18.8429 5.7708C18.7492 5.95608 18.5927 6.0387 18.3955 6.07192C18.3006 6.08792 18.1593 6.12264 17.9991 6.1228C17.8389 6.12297 17.659 6.09904 17.5612 6.12005C17.6199 6.15795 17.6865 6.22328 17.8183 6.2493C17.9523 6.27575 18.1561 6.16746 18.2804 6.13792C18.2646 6.24522 18.1327 6.34552 17.8732 6.3978C17.4467 6.49314 17.0923 6.5656 16.858 6.69617C16.6237 6.82674 16.476 6.99021 16.3705 7.1183C16.1606 7.3732 16.1495 7.56887 16.1362 7.61192C16.093 8.01917 16.2313 8.24826 16.4884 8.31867C16.6169 8.35387 16.8453 8.28758 16.929 8.18667C17.0127 8.08578 17.0942 7.91237 17.071 7.6408C17.0484 7.53426 16.9297 7.25676 17.0308 7.19943C17.4963 6.93528 18.0616 6.66815 18.4705 6.50919C18.5823 6.46574 18.6744 6.62171 18.7103 6.68244C19.405 6.59557 20.0314 6.11289 20.3134 5.59894C20.5054 5.24889 20.8219 5.59966 20.7687 5.93031C20.6828 6.29936 20.409 6.56619 20.0803 6.75531C19.7431 6.94597 19.3215 7.13357 18.8951 7.12381C18.6653 7.16843 18.6676 7.47358 18.9433 7.53081C19.4825 7.53431 19.9126 7.52051 20.3187 7.11831C20.6268 6.82955 20.8002 7.17361 20.7112 7.36856C20.5602 7.96952 19.7252 8.13781 18.8804 7.94331C18.5532 7.88769 18.7491 8.24759 18.8415 8.25131C19.1945 8.51116 19.8265 8.76541 20.383 8.24856C20.6377 8.04835 20.8099 8.21664 20.7152 8.50569C20.4682 9.25929 19.5236 9.10101 18.875 8.72981C18.7081 8.63427 18.5565 8.85655 18.7598 9.02544C19.5664 9.60405 19.9697 9.61063 20.3335 9.38843C20.7889 9.20402 20.829 9.72267 20.5585 9.89306C20.2578 10.0824 19.4926 9.94045 18.9312 9.57819C18.6906 9.39449 18.6797 9.68172 18.8321 9.79544C19.4983 10.3865 19.7609 10.5422 20.4554 10.4458C20.7997 10.4182 20.7945 10.8541 20.5237 11.0247C20.1538 11.2575 19.4315 10.871 18.871 10.3936C18.635 10.2641 18.5963 10.4764 18.7129 10.7277C19.0555 11.1713 19.3769 11.4329 19.6866 11.5541C19.9963 11.6752 20.2941 11.6559 20.5049 11.5815C20.7621 11.4908 20.7943 11.7652 20.6522 12.0147C20.5666 12.165 20.2117 12.2132 19.8286 12.0738C19.4455 11.9343 19.0342 11.6073 18.7518 11.224C18.5061 11.0032 18.5366 11.2999 18.6487 11.5087C19.2141 12.4264 19.7313 12.7669 20.4125 12.709C20.7145 12.6564 20.7831 12.8975 20.5906 13.1202C20.2526 13.408 19.8299 13.3989 19.4603 13.1147C19.1316 12.7894 18.5029 12.0889 18.1732 11.7135C17.9409 11.5234 17.8666 11.7108 17.9348 12.0972C17.9968 12.3184 18.152 12.5514 18.575 12.7214C18.8639 12.8907 18.647 13.1241 18.4304 13.1284C18.3111 13.1308 18.0691 12.9877 17.8839 12.7737C17.6403 12.492 17.6258 12.303 17.4915 11.8648C17.3646 11.6512 17.138 11.7509 17.1379 11.9748C17.2466 12.4137 17.34 12.4924 17.5598 12.6719C17.77 12.8745 17.4134 12.9421 17.2933 12.8589C16.9457 12.6184 16.8188 12.3072 16.7027 12.0243C16.6188 11.82 16.3757 11.9191 16.4884 12.2525C16.7578 13.0495 17.2005 13.3633 17.975 13.5244C18.0535 13.5387 18.1014 13.5863 18.0741 13.6798C17.9701 13.7906 17.866 13.8911 17.762 14.0015C18.241 14.1447 18.6301 14.2251 19.1094 14.3687C19.3445 14.2104 19.5345 14.0761 19.7696 13.9177C19.8316 13.7689 19.8606 13.5417 20.2076 13.7018C20.4427 13.5903 20.5512 13.6312 20.6817 13.7431C20.4933 13.7503 20.4114 13.802 20.3375 13.8902C20.2411 14.1509 20.0187 14.1761 19.7911 14.1019C19.643 14.23 19.5641 14.3282 19.4161 14.4567C19.6925 14.447 19.885 14.4419 20.1607 14.4333C20.4239 14.1432 20.6339 14.1591 20.8223 14.3866C20.9659 14.4092 21.0268 14.4124 21.125 14.5914C20.9705 14.5263 20.8733 14.5068 20.8062 14.5777C20.5264 14.7442 20.3437 14.7071 20.2049 14.5777C19.935 14.5946 19.6917 14.609 19.4214 14.6272C19.5207 14.7138 19.657 14.7598 19.7563 14.8472C20.1617 14.7281 20.3733 14.8884 20.4446 15.2281C20.499 15.3652 20.5244 15.5063 20.5009 15.6529C20.4617 15.5188 20.3986 15.4035 20.2826 15.3312C19.9212 15.4254 19.7853 15.274 19.7656 15.0521C19.5914 14.9062 19.3288 14.874 19.1549 14.7262C18.9516 14.793 18.8534 14.8344 18.6487 14.9008C18.5759 15.1279 18.4112 15.2178 18.1438 15.1593C17.8254 15.1696 17.8816 15.3037 17.8558 15.4109C17.7712 15.2569 17.7736 15.1071 17.9696 14.9709C18.041 14.772 18.199 14.6815 18.4063 14.7963C18.6013 14.7395 18.6526 14.6578 18.8469 14.6011C18.3554 14.4402 18.0067 14.4041 17.5156 14.2436C17.3927 14.3626 17.2953 14.4481 17.1714 14.5543C17.1062 14.5943 17.0437 14.6044 17.0054 14.5543C16.6976 14.097 16.5602 13.694 16.2741 13.3924C16.1648 13.2677 16.0268 13.0993 15.8737 13.0583C15.7971 13.0378 15.7032 13.0503 15.6433 13.1175C15.5834 13.1846 15.5363 13.3083 15.5562 13.4928C15.5849 13.7577 15.6472 13.8414 15.7196 14.0002C15.792 14.159 15.8805 14.2567 15.9714 14.3783C16.1533 14.6216 16.3932 14.7631 16.5353 14.8582C16.8193 15.0484 16.9394 14.9651 17.1594 14.9531C17.4436 14.9858 17.5193 15.128 17.2866 15.3243C17.0691 15.4405 16.8736 15.4548 16.7147 15.4247C16.5783 15.3988 16.4187 15.218 16.3049 15.1208C16.1769 14.969 15.9646 15.1491 16.1094 15.3257C16.3725 15.6467 16.6354 15.8583 16.9598 15.8537C17.3007 15.9008 17.237 16.0975 17.0107 16.1933C16.6035 16.3659 16.2359 16.0427 16.0491 15.8303C15.905 15.6685 15.8027 15.6622 15.8281 15.9128C15.9712 16.3666 16.1667 16.5419 16.4857 16.5646C16.7445 16.5399 16.7473 16.745 16.558 16.8836C16.1269 17.19 15.8146 16.6682 15.6687 16.3528C15.5648 16.0683 15.4053 16.2036 15.3888 16.4381C15.3867 16.7513 15.5246 17.0071 15.8937 17.3277C15.6113 17.7898 15.2819 18.2597 14.9991 18.7233L14.1417 8.91986L14.9989 7.37097C15.0882 7.28635 15.3901 6.92116 15.469 6.87047C15.4977 6.83891 15.5152 6.81661 15.473 6.80034C15.4321 6.78462 15.3364 6.767 15.2721 6.75497C15.4539 6.56802 15.6097 6.50806 15.9538 6.40573C15.8699 6.36906 15.7884 6.39041 15.5413 6.37825C15.6394 6.23531 15.8585 6.01636 16.1413 5.91073C15.9545 5.7744 15.9181 5.76526 15.7328 5.60548C16.0537 5.58212 16.3277 5.51937 16.6034 5.43361C16.7776 5.34994 17.0197 5.2789 17.1377 5.27686L17.1379 5.27718ZM17.1071 5.66081C16.9376 5.66081 16.8326 5.72048 16.8326 5.79281C16.8326 5.86639 16.9376 5.92618 17.1071 5.92618C17.276 5.92618 17.383 5.86094 17.383 5.78731C17.383 5.71498 17.276 5.66081 17.1071 5.66081Z" fill="black"/>
</g>
</g>
<defs>
<clipPath id="clip0_36_69">
<rect width="30" height="24" fill="white"/>
</clipPath>
<clipPath id="clip1_36_69">
<rect width="30" height="22" fill="white" transform="translate(0 1)"/>
</clipPath>
</defs>
</svg>
